# This file uses centimeters as units for non-parametric coordinates.

mtllib base obj.mtl
g default
v -6.054683 1.080668 6.014684
v 6.764580 1.080668 6.014684
v -4.265115 2.080668 5.067837
v 4.975013 2.080668 5.067837
v -4.265115 2.080668 -0.261931
v 4.975013 2.080668 -0.261931
v -5.906646 1.080668 -1.208778
v 6.616544 1.080668 -1.208778
v -5.906646 1.428567 6.014684
v 6.616544 1.428567 6.014684
v 6.616544 1.428567 -1.208778
v -5.906646 1.428567 -1.208778
v -5.523880 1.600668 -0.987996
v 6.233778 1.600668 -0.987996
v 6.233778 1.600668 5.793902
v -5.523880 1.600668 5.793902
v -5.906646 1.840668 -1.208778
v 6.616544 1.840668 -1.208778
v 6.616544 1.840668 6.014684
v -5.906646 1.840668 6.014684
v -6.032560 1.132659 6.014684
v 6.742457 1.132659 6.014684
v 6.616544 1.132659 -1.208778
v -5.906646 1.132659 -1.208778
v 6.616544 1.371380 -1.208778
v 6.640878 1.371380 6.014684
v -5.930980 1.371380 6.014684
v -5.906646 1.371380 -1.208778
v -5.784354 1.858548 -1.138239
v 6.494252 1.858548 -1.138239
v 6.494251 1.858548 5.944144
v -5.784353 1.858548 5.944144
v 6.385533 1.695821 5.881435
v 6.385534 1.695821 -1.075529
v -5.675636 1.695821 -1.075529
v -5.675636 1.695821 5.881435
v -4.265115 2.080668 4.911944
v 4.975013 2.080668 4.911944
v 6.494251 1.858548 5.736992
v 6.616544 1.840668 5.803405
v 6.385533 1.695821 5.677947
v 6.233778 1.600668 5.595538
v 6.616544 1.428567 5.803401
v 6.640166 1.371380 5.803405
v 6.738774 1.132659 5.803401
v 6.760250 1.080668 5.803405
v -6.050353 1.080668 5.803405
v -6.028877 1.132659 5.803405
v -5.930269 1.371380 5.803401
v -5.906646 1.428567 5.803405
v -5.523881 1.600668 5.595535
v -5.675636 1.695821 5.677951
v -5.906646 1.840668 5.803401
v -5.784353 1.858548 5.736988
v -5.912520 1.080668 -0.922172
v 6.622418 1.080668 -0.922172
v 6.621540 1.132659 -0.922169
v 6.617510 1.371380 -0.922172
v 6.616544 1.428567 -0.922169
v 6.233778 1.600668 -0.718909
v 6.385534 1.695821 -0.799495
v 6.616544 1.840668 -0.922172
v 6.494252 1.858548 -0.857230
v 4.975013 2.080668 -0.050459
v -4.265115 2.080668 -0.050459
v -5.784354 1.858548 -0.857228
v -5.906646 1.840668 -0.922169
v -5.675637 1.695821 -0.799497
v -5.523880 1.600668 -0.718907
v -5.906646 1.428567 -0.922172
v -5.907612 1.371380 -0.922169
v -5.911642 1.132659 -0.922172
v 6.710239 1.080668 6.014684
v 6.705940 1.080668 5.803405
v 6.569281 1.080668 -0.922172
v 6.563458 1.080668 -1.208778
v 6.563453 1.132659 -1.208778
v 6.563458 1.371380 -1.208778
v 6.563453 1.428567 -1.208778
v 6.183936 1.600668 -0.987996
v 6.334402 1.695821 -1.075529
v 6.563458 1.840668 -1.208778
v 6.442202 1.858548 -1.138239
v 4.935843 2.080668 -0.261931
v 4.935840 2.080668 -0.050459
v 4.935843 2.080668 4.911944
v 4.935843 2.080668 5.067837
v 6.442197 1.858548 5.944144
v 6.563453 1.840668 6.014684
v 6.334406 1.695821 5.881435
v 6.183933 1.600668 5.793902
v 6.563458 1.428567 6.014684
v 6.587581 1.371380 6.014684
v 6.688303 1.132659 6.014684
v -4.333760 2.070632 -0.301526
v 5.003907 2.070632 -0.301526
v 5.043657 2.070632 -0.301526
v 5.043658 2.070632 -0.086913
v 5.043657 2.070632 4.949223
v 5.043658 2.070632 5.107432
v 5.003906 2.070632 5.107432
v -4.333760 2.070632 5.107432
v -4.333760 2.070632 4.949223
v -4.333760 2.070632 -0.086912
vt 0.447248 0.648360
vt 0.390982 0.657767
vt 0.390982 0.353371
vt 0.447248 0.362571
vt 0.390982 0.667330
vt 0.447248 0.657338
vt 0.372286 0.657768
vt 0.372286 0.353371
vt 0.390982 0.340399
vt 0.447248 0.350392
vt 0.478356 0.652090
vt 0.478356 0.358923
vt 0.372286 0.667330
vt 0.478356 0.661300
vt 0.294241 0.657767
vt 0.294241 0.353371
vt 0.372286 0.340399
vt 0.478356 0.346430
vt 0.525711 0.657768
vt 0.525711 0.353371
vt 0.294241 0.667330
vt 0.525711 0.667330
vt 0.277243 0.657768
vt 0.277243 0.353371
vt 0.294241 0.340399
vt 0.525711 0.340399
vt 0.531557 0.654762
vt 0.531557 0.356310
vt 0.277243 0.667330
vt 0.531557 0.664137
vt 0.277243 0.340399
vt 0.531557 0.343592
vt 0.600893 0.391174
vt 0.600893 0.619108
vt 0.600893 0.626268
vt 0.600893 0.381461
vt 0.604175 0.617421
vt 0.604175 0.392824
vt 0.604175 0.624477
vt 0.604175 0.383253
vt 0.024041 0.841081
vt 0.014842 0.784816
vt 0.319238 0.784816
vt 0.309830 0.841081
vt 0.001870 0.784816
vt 0.011863 0.841081
vt 0.014842 0.766120
vt 0.319238 0.766120
vt 0.328801 0.784816
vt 0.318808 0.841081
vt 0.020394 0.872190
vt 0.313561 0.872190
vt 0.001870 0.766120
vt 0.007901 0.872190
vt 0.014842 0.688075
vt 0.319238 0.688075
vt 0.328801 0.766120
vt 0.322770 0.872190
vt 0.014842 0.919545
vt 0.319238 0.919545
vt 0.001870 0.688075
vt 0.001870 0.919545
vt 0.014842 0.671077
vt 0.319238 0.671077
vt 0.328801 0.688075
vt 0.328801 0.919545
vt 0.017781 0.925390
vt 0.316232 0.925390
vt 0.001870 0.671077
vt 0.005063 0.925390
vt 0.328801 0.671077
vt 0.325608 0.925390
vt 0.280579 0.994727
vt 0.052645 0.994727
vt 0.042932 0.994727
vt 0.287739 0.994727
vt 0.054295 0.998008
vt 0.278891 0.998008
vt 0.044724 0.998008
vt 0.285947 0.998008
vt 0.575231 0.902729
vt 0.575232 0.678133
vt 0.576254 0.678133
vt 0.576254 0.902729
vt 0.335031 0.678133
vt 0.335031 0.902729
vt 0.575232 0.671077
vt 0.576254 0.671077
vt 0.575232 0.912301
vt 0.576254 0.912301
vt 0.335031 0.671077
vt 0.335031 0.912301
vt 0.652399 0.003523
vt 0.348003 0.007091
vt 0.348003 0.005703
vt 0.652399 0.002105
vt 0.348003 0.332941
vt 0.652399 0.336539
vt 0.335031 0.007243
vt 0.335031 0.005857
vt 0.661962 0.003411
vt 0.661962 0.001992
vt 0.335031 0.332788
vt 0.661962 0.336652
vt 0.171874 0.017150
vt 0.115609 0.007243
vt 0.115609 0.005857
vt 0.171874 0.015849
vt 0.115609 0.332787
vt 0.171874 0.322795
vt 0.096913 0.006613
vt 0.096913 0.005221
vt 0.202983 0.013222
vt 0.202983 0.011888
vt 0.096913 0.333423
vt 0.202983 0.326757
vt 0.018868 0.003983
vt 0.018868 0.002570
vt 0.250337 0.007243
vt 0.250337 0.005857
vt 0.018868 0.336075
vt 0.250337 0.332787
vt 0.001870 0.003411
vt 0.001870 0.001992
vt 0.256183 0.010408
vt 0.256183 0.009049
vt 0.001870 0.336652
vt 0.256183 0.329595
vt 0.325520 0.046918
vt 0.325520 0.047956
vt 0.325520 0.291726
vt 0.328801 0.049733
vt 0.328801 0.048711
vt 0.328801 0.289934
vt 0.935479 0.553592
vt 0.925571 0.497326
vt 0.926872 0.497326
vt 0.936865 0.553592
vt 0.619927 0.497326
vt 0.609934 0.553592
vt 0.929499 0.466218
vt 0.930834 0.466218
vt 0.935479 0.572287
vt 0.936865 0.572287
vt 0.615965 0.466218
vt 0.609934 0.572287
vt 0.935479 0.418863
vt 0.936865 0.418863
vt 0.935479 0.650333
vt 0.936865 0.650333
vt 0.609934 0.418863
vt 0.609934 0.650333
vt 0.932314 0.413017
vt 0.933672 0.413017
vt 0.935479 0.667331
vt 0.936865 0.667331
vt 0.613127 0.413017
vt 0.609934 0.667331
vt 0.894765 0.343681
vt 0.895803 0.343681
vt 0.650996 0.343681
vt 0.892989 0.340399
vt 0.894011 0.340399
vt 0.652788 0.340399
vn 0.000000 0.462640 0.886546
vn 0.000000 0.677336 0.735674
vn 0.000000 0.677083 0.735907
vn 0.000000 0.462783 0.886472
vn 0.000000 1.000000 0.000000
vn 0.000000 1.000000 0.000000
vn 0.000000 1.000000 0.000000
vn 0.000000 1.000000 0.000000
vn 0.000000 0.679691 -0.733499
vn 0.000000 0.462640 -0.886546
vn 0.000000 0.462787 -0.886469
vn 0.000000 0.679483 -0.733691
vn 0.000000 -1.000000 -0.000000
vn 0.000000 -1.000000 -0.000000
vn 0.000000 -1.000000 0.000000
vn 0.000000 -1.000000 0.000000
vn 0.742339 0.670024 0.000000
vn 0.513116 0.858319 -0.000238
vn 0.513603 0.858028 -0.000237
vn 0.742653 0.669676 0.000000
vn -0.742655 0.669674 -0.000000
vn -0.513603 0.858028 -0.000237
vn -0.513116 0.858319 -0.000238
vn -0.742341 0.670022 0.000000
vn 0.000000 0.000000 1.000000
vn 0.000000 0.000000 1.000000
vn 0.000000 0.000000 1.000000
vn 0.000000 0.000000 1.000000
vn 0.976363 0.215971 -0.008510
vn 0.976331 0.215966 -0.011649
vn 0.979264 0.202253 -0.011684
vn 0.979295 0.202259 -0.008535
vn 0.000000 0.000000 -1.000000
vn 0.000000 0.000000 -1.000000
vn 0.000000 0.000000 -1.000000
vn 0.000000 0.000000 -1.000000
vn -0.979295 0.202259 -0.008535
vn -0.979264 0.202253 -0.011684
vn -0.976331 0.215966 -0.011649
vn -0.976363 0.215971 -0.008510
vn 0.000000 -0.677027 -0.735958
vn 0.000000 -0.438917 -0.898528
vn 0.000000 -0.440303 -0.897850
vn 0.000000 -0.677028 -0.735957
vn 0.770342 -0.637632 0.000000
vn 0.531227 -0.847230 0.000000
vn 0.531227 -0.847230 0.000000
vn 0.773165 -0.634205 0.000000
vn 0.000000 -0.438917 0.898528
vn 0.000000 -0.677027 0.735958
vn 0.000000 -0.677028 0.735957
vn 0.000000 -0.440277 0.897862
vn -0.773164 -0.634206 0.000000
vn -0.531226 -0.847230 0.000000
vn -0.531226 -0.847230 0.000000
vn -0.770341 -0.637633 0.000000
vn 0.000000 0.969345 -0.245703
vn 0.000000 0.969345 -0.245703
vn 0.144667 0.989480 0.000000
vn 0.144667 0.989480 -0.000000
vn 0.000000 0.969345 0.245703
vn 0.000000 0.969346 0.245701
vn -0.144667 0.989480 0.000000
vn -0.144667 0.989480 0.000000
vn 0.000000 0.000000 1.000000
vn 0.000000 0.000000 1.000000
vn 0.976229 0.215951 -0.018512
vn 0.979160 0.202238 -0.018567
vn 0.000000 0.000000 -1.000000
vn 0.000000 0.000000 -1.000000
vn -0.979160 0.202238 -0.018567
vn -0.976229 0.215951 -0.018512
vn 0.000000 0.969345 -0.245703
vn 0.000000 0.969345 -0.245702
vn 0.144667 0.989480 0.000000
vn 0.144667 0.989480 0.000000
vn -0.000000 0.969346 0.245701
vn -0.000000 0.969345 0.245703
vn -0.144667 0.989480 0.000000
vn -0.144667 0.989480 0.000000
vn 0.000000 1.000000 0.000000
vn 0.000000 1.000000 0.000000
vn 0.144667 0.989480 0.000000
vn 0.144667 0.989480 0.000000
vn 0.761880 -0.647718 0.000000
vn 0.531226 -0.847230 0.000000
vn 0.741421 0.671041 0.000000
vn 0.502145 0.864783 -0.000235
vn 0.922185 0.386666 -0.008038
vn 0.922159 0.386653 -0.011004
vn 0.922078 0.386608 -0.017485
vn 0.000000 -1.000000 -0.000000
vn 0.000000 -1.000000 0.000000
vn -0.922077 0.386610 -0.017485
vn -0.922160 0.386652 -0.011003
vn -0.922184 0.386667 -0.008037
vn -0.502144 0.864784 -0.000235
vn -0.741420 0.671041 0.000001
vn -0.531226 -0.847230 0.000000
vn -0.761885 -0.647712 0.000000
vn -0.144667 0.989480 0.000000
vn -0.144667 0.989480 0.000000
vn 0.000000 -1.000000 0.000000
vn 0.000000 -1.000000 0.000000
vn 0.999785 0.008445 -0.018959
vn 0.999893 0.008440 -0.011931
vn 0.999927 0.008439 -0.008716
vn 0.528117 0.849172 -0.000247
vn 0.741422 0.671039 0.000000
vn 0.531226 -0.847230 0.000000
vn 0.761883 -0.647715 -0.000000
vn 0.144667 0.989480 -0.000000
vn 0.144667 0.989480 -0.000000
vn 0.000000 1.000000 0.000000
vn 0.000000 1.000000 0.000000
vn -0.144667 0.989480 0.000000
vn -0.144667 0.989480 0.000000
vn -0.761886 -0.647712 -0.000000
vn -0.531227 -0.847230 -0.000000
vn -0.741422 0.671039 -0.000000
vn -0.528116 0.849172 -0.000247
vn -0.999927 0.008439 -0.008716
vn -0.999893 0.008440 -0.011931
vn -0.999785 0.008445 -0.018959
vn 0.000000 -1.000000 -0.000000
vn 0.000000 -1.000000 -0.000000
vn 0.000000 -1.000000 -0.000000
vn 0.000000 -1.000000 0.000000
vn 0.000000 0.000000 -1.000000
vn 0.000000 0.000000 -1.000000
vn 0.000000 0.000000 -1.000000
vn 0.000000 0.679481 -0.733693
vn 0.000000 0.462784 -0.886471
vn 0.000000 -0.677027 -0.735958
vn 0.000000 -0.440285 -0.897858
vn 0.000000 0.969345 -0.245703
vn -0.000000 0.969345 -0.245703
vn 0.000000 1.000000 0.000000
vn 0.000000 1.000000 0.000000
vn 0.000000 1.000000 0.000000
vn 0.000000 1.000000 0.000000
vn 0.000000 0.969345 0.245703
vn 0.000000 0.969345 0.245703
vn 0.000000 -0.440285 0.897858
vn 0.000000 -0.677027 0.735958
vn 0.000000 0.462785 0.886471
vn 0.000000 0.677085 0.735905
vn 0.000000 0.000000 1.000000
vn 0.000000 0.000000 1.000000
vn 0.000000 0.000000 1.000000
vn -0.000000 0.969345 -0.245703
vn -0.000000 0.969345 -0.245703
vn 0.000001 0.969345 -0.245702
vn 0.144666 0.989481 0.000000
vn 0.144667 0.989480 0.000000
vn 0.144666 0.989481 0.000000
vn 0.144667 0.989480 0.000000
vn 0.000000 0.969345 0.245703
vn -0.000001 0.969345 0.245704
vn 0.000000 0.969345 0.245703
vn -0.144667 0.989480 0.000000
vn -0.144666 0.989480 0.000000
vn -0.144667 0.989480 0.000000
vn -0.144667 0.989480 0.000000
s 1
g pCube1
usemtl initialShadingGroup
f 91/105/1 92/106/2 10/107/3 15/108/4
s 2
f 85/81/5 86/82/6 38/83/7 64/84/8
s 3
f 79/135/9 80/136/10 14/137/11 11/138/12
s 4
f 74/93/13 75/94/14 56/95/15 46/96/16
s 5
f 42/1/17 43/2/18 59/3/19 60/4/20
s 6
f 69/41/21 70/42/22 50/43/23 51/44/24
s 1
f 93/111/25 94/117/26 22/118/27 26/112/28
s 5
f 44/7/29 45/15/30 57/16/31 58/8/32
s 3
f 77/149/33 78/143/34 25/144/35 23/150/36
s 6
f 71/47/37 72/55/38 48/56/39 49/48/40
s 3
f 81/141/41 82/147/42 18/148/43 34/142/44
s 5
f 40/19/45 41/11/46 61/12/47 62/20/48
s 1
f 89/119/49 90/113/50 33/114/51 19/120/52
s 6
f 67/59/53 68/51/54 52/52/55 53/60/56
s 3
f 82/147/42 83/153/57 30/154/58 18/148/43
s 5
f 39/27/59 40/19/45 62/20/48 63/28/60
s 1
f 88/125/61 89/119/49 19/120/52 31/126/62
s 6
f 66/67/63 67/59/53 53/60/56 54/68/64
s 1
f 94/117/26 73/123/65 2/124/66 22/118/27
s 5
f 45/15/30 46/23/67 56/24/68 57/16/31
s 3
f 76/155/69 77/149/33 23/150/36 8/156/70
s 6
f 72/55/38 55/63/71 47/64/72 48/56/39
s 5
f 43/2/18 44/7/29 58/8/32 59/3/19
s 1
f 92/106/2 93/111/25 26/112/28 10/107/3
s 6
f 70/42/22 71/47/37 49/48/40 50/43/23
s 3
f 78/143/34 79/135/9 11/138/12 25/144/35
f 83/153/57 96/159/73 97/160/74 30/154/58
s 5
f 98/33/75 99/34/76 39/27/59 63/28/60
s 1
f 100/129/77 101/130/78 88/125/61 31/126/62
s 6
f 103/73/79 104/74/80 66/67/63 54/68/64
s 5
f 41/11/46 42/1/17 60/4/20 61/12/47
s 3
f 80/136/10 81/141/41 34/142/44 14/137/11
s 6
f 68/51/54 69/41/21 51/44/24 52/52/55
s 1
f 90/113/50 91/105/1 15/108/4 33/114/51
s 2
f 86/82/6 87/87/81 4/88/82 38/83/7
s 5
f 31/30/83 39/27/59 99/34/76 100/35/84
f 19/22/85 40/19/45 39/27/59 31/30/83
f 33/14/86 41/11/46 40/19/45 19/22/85
f 15/6/87 42/1/17 41/11/46 33/14/86
f 10/5/88 43/2/18 42/1/17 15/6/87
f 26/13/89 44/7/29 43/2/18 10/5/88
f 22/21/90 45/15/30 44/7/29 26/13/89
f 2/29/91 46/23/67 45/15/30 22/21/90
s 4
f 73/101/92 74/93/13 46/96/16 2/102/93
s 6
f 48/56/39 47/64/72 1/71/94 21/65/95
f 49/48/40 48/56/39 21/65/95 27/57/96
f 50/43/23 49/48/40 27/57/96 9/49/97
f 51/44/24 50/43/23 9/49/97 16/50/98
f 52/52/55 51/44/24 16/50/98 36/58/99
f 53/60/56 52/52/55 36/58/99 20/66/100
f 54/68/64 53/60/56 20/66/100 32/72/101
f 102/76/102 103/73/79 54/68/64 32/72/101
s 4
f 75/94/14 76/99/103 8/100/104 56/95/15
s 5
f 57/16/31 56/24/68 8/31/105 23/25/106
f 58/8/32 57/16/31 23/25/106 25/17/107
f 59/3/19 58/8/32 25/17/107 11/9/108
f 60/4/20 59/3/19 11/9/108 14/10/109
f 61/12/47 60/4/20 14/10/109 34/18/110
f 62/20/48 61/12/47 34/18/110 18/26/111
f 63/28/60 62/20/48 18/26/111 30/32/112
f 97/36/113 98/33/75 63/28/60 30/32/112
s 2
f 84/89/114 85/81/5 64/84/8 6/90/115
s 6
f 29/70/116 66/67/63 104/74/80 95/75/117
f 17/62/118 67/59/53 66/67/63 29/70/116
f 35/54/119 68/51/54 67/59/53 17/62/118
f 13/46/120 69/41/21 68/51/54 35/54/119
f 12/45/121 70/42/22 69/41/21 13/46/120
f 28/53/122 71/47/37 70/42/22 12/45/121
f 24/61/123 72/55/38 71/47/37 28/53/122
f 7/69/124 55/63/71 72/55/38 24/61/123
s 4
f 47/98/125 74/93/13 73/101/92 1/104/126
f 55/97/127 75/94/14 74/93/13 47/98/125
f 7/103/128 76/99/103 75/94/14 55/97/127
s 3
f 24/152/129 77/149/33 76/155/69 7/158/130
f 28/146/131 78/143/34 77/149/33 24/152/129
f 12/140/132 79/135/9 78/143/34 28/146/131
f 13/139/133 80/136/10 79/135/9 12/140/132
f 35/145/134 81/141/41 80/136/10 13/139/133
f 17/151/135 82/147/42 81/141/41 35/145/134
f 29/157/136 83/153/57 82/147/42 17/151/135
f 95/161/137 96/159/73 83/153/57 29/157/136
s 2
f 65/86/138 85/81/5 84/89/114 5/92/139
f 37/85/140 86/82/6 85/81/5 65/86/138
f 3/91/141 87/87/81 86/82/6 37/85/140
s 1
f 32/128/142 88/125/61 101/130/78 102/131/143
f 20/122/144 89/119/49 88/125/61 32/128/142
f 36/116/145 90/113/50 89/119/49 20/122/144
f 16/110/146 91/105/1 90/113/50 36/116/145
f 9/109/147 92/106/2 91/105/1 16/110/146
f 27/115/148 93/111/25 92/106/2 9/109/147
f 21/121/149 94/117/26 93/111/25 27/115/148
f 1/127/150 73/123/65 94/117/26 21/121/149
s 3
f 5/164/151 84/162/152 96/159/73 95/161/137
f 97/160/74 96/159/73 84/162/152 6/163/153
s 5
f 64/38/154 98/33/75 97/36/113 6/40/155
f 38/37/156 99/34/76 98/33/75 64/38/154
f 100/35/84 99/34/76 38/37/156 4/39/157
s 1
f 87/132/158 101/130/78 100/129/77 4/133/159
f 102/131/143 101/130/78 87/132/158 3/134/160
s 6
f 37/78/161 103/73/79 102/76/102 3/80/162
f 65/77/163 104/74/80 103/73/79 37/78/161
f 95/75/117 104/74/80 65/77/163 5/79/164
